<?xml version="1.0" encoding="UTF-8" standalone="no"?>
<!-- Created with Inkscape (http://www.inkscape.org/) -->

<svg
   width="28.740101mm"
   height="2.3591599mm"
   viewBox="0 0 28.740101 2.3591599"
   version="1.1"
   id="svg5"
   sodipodi:docname="logo.svg"
   inkscape:version="1.2.2 (b0a8486541, 2022-12-01)"
   xmlns:inkscape="http://www.inkscape.org/namespaces/inkscape"
   xmlns:sodipodi="http://sodipodi.sourceforge.net/DTD/sodipodi-0.dtd"
   xmlns="http://www.w3.org/2000/svg"
   xmlns:svg="http://www.w3.org/2000/svg">
  <sodipodi:namedview
     id="namedview7"
     pagecolor="#ffffff"
     bordercolor="#000000"
     borderopacity="0.25"
     inkscape:showpageshadow="2"
     inkscape:pageopacity="0.0"
     inkscape:pagecheckerboard="0"
     inkscape:deskcolor="#d1d1d1"
     inkscape:document-units="mm"
     showgrid="false"
     inkscape:zoom="2.9684111"
     inkscape:cx="57.606577"
     inkscape:cy="6.5691711"
     inkscape:window-width="792"
     inkscape:window-height="693"
     inkscape:window-x="574"
     inkscape:window-y="0"
     inkscape:window-maximized="0"
     inkscape:current-layer="layer2" />
  <defs
     id="defs2" />
  <g
     inkscape:groupmode="layer"
     id="layer2"
     inkscape:label="Text"
     style="display:inline"
     transform="translate(-5.4319091,-10.20065)">
    <g
       aria-label="Evas Kunstblumen"
       id="text114"
       style="font-weight:200;font-size:3.175px;font-family:'Iosevka Aile';-inkscape-font-specification:'Iosevka Aile, Ultra-Light';baseline-shift:baseline;opacity:1;vector-effect:none;stroke-width:0.264583;stop-color:#000000;stop-opacity:1">
      <path
         d="m 5.4319091,12.53428 v -2.333625 h 1.27635 v 0.12065 h -1.143 v 0.9398 h 0.949325 v 0.12065 h -0.949325 v 1.031875 h 1.143 v 0.12065 z"
         style="baseline-shift:baseline;vector-effect:none;stop-color:#000000;stop-opacity:1"
         id="path470" />
      <path
         d="m 7.8861853,12.53428 -0.6477,-1.651 h 0.149225 l 0.428625,1.101725 q 0.0381,0.09525 0.073025,0.193675 0.0381,0.09843 0.073025,0.19685 0.034925,-0.09842 0.06985,-0.19685 0.0381,-0.09843 0.0762,-0.193675 l 0.428625,-1.101725 h 0.149225 l -0.6477,1.651 z"
         style="baseline-shift:baseline;vector-effect:none;stop-color:#000000;stop-opacity:1"
         id="path472" />
      <path
         d="m 9.8102365,12.55968 q -0.073025,0 -0.14605,-0.0095 -0.06985,-0.0063 -0.1397,-0.0254 -0.066675,-0.02223 -0.130175,-0.05715 -0.0635,-0.03493 -0.111125,-0.0889 -0.047625,-0.05715 -0.06985,-0.127 -0.022225,-0.06985 -0.022225,-0.142875 0,-0.08255 0.028575,-0.161925 0.028575,-0.08255 0.085725,-0.142875 0.060325,-0.06032 0.136525,-0.09842 0.0762,-0.0381 0.155575,-0.06033 0.08255,-0.02222 0.1651,-0.02858 0.085725,-0.0095 0.17145,-0.0095 h 0.4508495 v -0.1524 q 0,-0.06668 -0.01588,-0.13335 -0.0127,-0.06668 -0.04763,-0.123825 -0.03175,-0.05715 -0.08573,-0.1016 -0.0508,-0.04445 -0.1143,-0.06985 -0.06032,-0.0254 -0.1269995,-0.03492 -0.066675,-0.0127 -0.13335,-0.0127 -0.05715,0 -0.1143,0.0064 -0.05715,0.0063 -0.111125,0.02222 -0.053975,0.0127 -0.10795,0.0381 -0.0508,0.0254 -0.092075,0.06668 -0.041275,0.0381 -0.066675,0.09208 -0.022225,0.0508 -0.0254,0.10795 h -0.13335 q 0,-0.07302 0.028575,-0.142875 0.028575,-0.06985 0.0762,-0.123825 0.0508,-0.05715 0.117475,-0.09207 0.066675,-0.0381 0.136525,-0.05715 0.06985,-0.02223 0.142875,-0.02858 0.0762,-0.0095 0.149225,-0.0095 0.085725,0 0.1682745,0.0127 0.08573,0.0127 0.161925,0.04763 0.0762,0.03175 0.1397,0.0889 0.06668,0.05398 0.10795,0.127 0.04445,0.06985 0.06033,0.155575 0.01905,0.08255 0.01905,0.1651 v 1.0795 h -0.13335 v -0.3048 q -0.03493,0.08255 -0.09525,0.149225 -0.06033,0.06668 -0.1397,0.10795 -0.0762,0.04127 -0.1650995,0.05715 -0.085725,0.01587 -0.174625,0.01587 z m 0.041275,-0.12065 q 0.06985,0 0.136525,-0.0095 0.06985,-0.0127 0.1333495,-0.04128 0.0635,-0.03175 0.1143,-0.0762 0.05398,-0.04763 0.08573,-0.10795 0.03493,-0.0635 0.04763,-0.130175 0.01588,-0.06985 0.01588,-0.1397 V 11.72783 H 9.9340615 q -0.066675,0 -0.13335,0.0063 -0.066675,0.0032 -0.13335,0.01905 -0.0635,0.01587 -0.123825,0.04127 -0.060325,0.0254 -0.111125,0.06985 -0.0508,0.04128 -0.079375,0.104775 -0.028575,0.06033 -0.028575,0.127 0,0.06032 0.022225,0.117475 0.022225,0.05398 0.0635,0.09525 0.04445,0.0381 0.098425,0.0635 0.053975,0.0254 0.10795,0.04127 0.05715,0.0127 0.1143,0.01905 0.060325,0.0064 0.12065,0.0064 z"
         style="baseline-shift:baseline;vector-effect:none;stop-color:#000000;stop-opacity:1"
         id="path474" />
      <path
         d="m 11.769213,12.55968 q -0.07303,0 -0.14605,-0.0063 -0.06985,-0.0064 -0.1397,-0.02223 -0.06985,-0.01905 -0.136525,-0.0508 -0.0635,-0.03175 -0.117475,-0.07937 -0.05398,-0.04763 -0.08573,-0.1143 -0.02858,-0.06985 -0.02858,-0.1397 v -0.0095 h 0.13335 v 0.0032 q 0,0.05715 0.02857,0.10795 0.02858,0.04763 0.06985,0.08255 0.04445,0.03492 0.09525,0.05715 0.05397,0.01905 0.10795,0.03175 0.05397,0.0095 0.10795,0.01587 0.05715,0.0032 0.111125,0.0032 0.05715,0 0.111125,-0.0032 0.05715,-0.0063 0.111125,-0.01905 0.05715,-0.01587 0.10795,-0.0381 0.05397,-0.02223 0.09525,-0.06033 0.04128,-0.0381 0.06668,-0.0889 0.02858,-0.05398 0.02858,-0.111125 0,-0.0635 -0.03492,-0.117475 -0.03493,-0.05715 -0.0889,-0.09208 -0.05397,-0.03492 -0.1143,-0.05397 -0.06033,-0.01905 -0.12065,-0.03492 -0.06033,-0.01905 -0.123825,-0.03493 -0.06033,-0.01587 -0.123825,-0.03175 -0.06033,-0.01905 -0.12065,-0.0381 -0.06032,-0.01905 -0.117475,-0.04445 -0.05715,-0.0254 -0.111125,-0.06033 -0.05397,-0.03492 -0.09842,-0.08255 -0.04128,-0.04763 -0.06668,-0.104775 -0.02223,-0.06033 -0.02223,-0.123825 0,-0.07303 0.0254,-0.1397 0.02858,-0.06985 0.0762,-0.12065 0.04762,-0.05397 0.111125,-0.0889 0.0635,-0.03492 0.130175,-0.05397 0.06985,-0.02223 0.142875,-0.02858 0.07302,-0.0095 0.142875,-0.0095 0.06985,0 0.1397,0.0063 0.06985,0.0064 0.136525,0.0254 0.06985,0.01587 0.13335,0.04763 0.0635,0.03175 0.111125,0.08255 0.0508,0.04763 0.07938,0.1143 0.02858,0.06668 0.02858,0.136525 v 0.0095 h -0.13335 v -0.0064 q 0,-0.0508 -0.0254,-0.09842 -0.0254,-0.0508 -0.06668,-0.08573 -0.04128,-0.03493 -0.09208,-0.05398 -0.04763,-0.02222 -0.1016,-0.03492 -0.0508,-0.0127 -0.104775,-0.01587 -0.0508,-0.0064 -0.104775,-0.0064 -0.05397,0 -0.10795,0.0064 -0.05397,0.0032 -0.10795,0.01905 -0.05398,0.0127 -0.104775,0.0381 -0.04763,0.02222 -0.0889,0.06032 -0.0381,0.0381 -0.0635,0.0889 -0.02223,0.0508 -0.02223,0.104775 0,0.0635 0.03492,0.12065 0.03493,0.05398 0.08573,0.0889 0.05398,0.03492 0.1143,0.05715 0.0635,0.01905 0.123825,0.0381 0.06033,0.01587 0.12065,0.03175 0.0635,0.01587 0.123825,0.03492 0.06032,0.01587 0.12065,0.03492 0.06033,0.01905 0.117475,0.04445 0.06032,0.0254 0.1143,0.06032 0.05397,0.03175 0.09525,0.07938 0.04445,0.04763 0.06668,0.10795 0.0254,0.06033 0.0254,0.123825 0,0.07303 -0.02858,0.142875 -0.02858,0.06985 -0.08255,0.123825 -0.0508,0.0508 -0.117475,0.08573 -0.0635,0.03493 -0.136525,0.05398 -0.06985,0.01905 -0.142875,0.0254 -0.07302,0.0095 -0.14605,0.0095 z"
         style="baseline-shift:baseline;vector-effect:none;stop-color:#000000;stop-opacity:1"
         id="path476" />
      <path
         d="m 15.299815,12.53428 -0.7366,-1.17475 -0.231775,0.301625 v 0.873125 h -0.13335 v -2.333625 h 0.13335 v 1.25095 l 0.962025,-1.25095 h 0.161925 l -0.809625,1.050925 0.809625,1.2827 z"
         style="baseline-shift:baseline;vector-effect:none;stop-color:#000000;stop-opacity:1"
         id="path478" />
      <path
         d="m 16.652366,12.55968 q -0.08573,0 -0.174625,-0.01905 -0.08573,-0.01905 -0.161925,-0.0635 -0.07303,-0.04763 -0.127,-0.117475 -0.05397,-0.06985 -0.0889,-0.149225 -0.03175,-0.08255 -0.04445,-0.168275 -0.0127,-0.08573 -0.0127,-0.174625 v -0.98425 h 0.13335 v 0.98425 q 0,0.07302 0.0095,0.14605 0.0127,0.07303 0.04127,0.1397 0.02858,0.06668 0.0762,0.123825 0.04763,0.05715 0.111125,0.09525 0.0635,0.03492 0.13335,0.0508 0.07302,0.01588 0.14605,0.01588 0.07303,0 0.142875,-0.01588 0.07303,-0.01587 0.136525,-0.0508 0.0635,-0.0381 0.111125,-0.09525 0.04763,-0.05715 0.0762,-0.123825 0.02858,-0.06668 0.0381,-0.1397 0.0127,-0.07302 0.0127,-0.14605 v -0.98425 h 0.13335 v 1.651 h -0.13335 v -0.333375 q -0.03492,0.08255 -0.0889,0.155575 -0.05398,0.06985 -0.130175,0.117475 -0.0762,0.04763 -0.1651,0.06668 -0.08573,0.01905 -0.174625,0.01905 z"
         style="baseline-shift:baseline;vector-effect:none;stop-color:#000000;stop-opacity:1"
         id="path480" />
      <path
         d="m 17.947767,12.53428 v -1.651 h 0.13335 v 0.333375 q 0.03493,-0.08255 0.0889,-0.1524 0.05397,-0.07302 0.130175,-0.12065 0.0762,-0.04763 0.161925,-0.06668 0.0889,-0.01905 0.1778,-0.01905 0.08573,0 0.17145,0.01905 0.0889,0.01905 0.161925,0.06668 0.0762,0.04445 0.130175,0.1143 0.05398,0.06985 0.08573,0.1524 0.03493,0.07938 0.04763,0.1651 0.0127,0.08573 0.0127,0.174625 v 0.98425 h -0.13335 v -0.98425 q 0,-0.07302 -0.0127,-0.14605 -0.0095,-0.07303 -0.0381,-0.1397 -0.02858,-0.06668 -0.0762,-0.123825 -0.04763,-0.05715 -0.111125,-0.09207 -0.0635,-0.0381 -0.136525,-0.05397 -0.06985,-0.01588 -0.142875,-0.01588 -0.07303,0 -0.14605,0.01588 -0.06985,0.01587 -0.13335,0.05397 -0.0635,0.03492 -0.111125,0.09207 -0.04763,0.05715 -0.0762,0.123825 -0.02858,0.06668 -0.04128,0.1397 -0.0095,0.07302 -0.0095,0.14605 v 0.98425 z"
         style="baseline-shift:baseline;vector-effect:none;stop-color:#000000;stop-opacity:1"
         id="path482" />
      <path
         d="m 20.500469,12.55968 q -0.07302,0 -0.14605,-0.0063 -0.06985,-0.0064 -0.1397,-0.02223 -0.06985,-0.01905 -0.136525,-0.0508 -0.0635,-0.03175 -0.117475,-0.07937 -0.05398,-0.04763 -0.08573,-0.1143 -0.02858,-0.06985 -0.02858,-0.1397 v -0.0095 h 0.13335 v 0.0032 q 0,0.05715 0.02858,0.10795 0.02858,0.04763 0.06985,0.08255 0.04445,0.03492 0.09525,0.05715 0.05398,0.01905 0.10795,0.03175 0.05398,0.0095 0.10795,0.01587 0.05715,0.0032 0.111125,0.0032 0.05715,0 0.111125,-0.0032 0.05715,-0.0063 0.111125,-0.01905 0.05715,-0.01587 0.10795,-0.0381 0.05398,-0.02223 0.09525,-0.06033 0.04127,-0.0381 0.06668,-0.0889 0.02858,-0.05398 0.02858,-0.111125 0,-0.0635 -0.03493,-0.117475 -0.03492,-0.05715 -0.0889,-0.09208 -0.05398,-0.03492 -0.1143,-0.05397 -0.06032,-0.01905 -0.12065,-0.03492 -0.06032,-0.01905 -0.123825,-0.03493 -0.06032,-0.01587 -0.123825,-0.03175 -0.06032,-0.01905 -0.12065,-0.0381 -0.06033,-0.01905 -0.117475,-0.04445 -0.05715,-0.0254 -0.111125,-0.06033 -0.05398,-0.03492 -0.09843,-0.08255 -0.04127,-0.04763 -0.06668,-0.104775 -0.02222,-0.06033 -0.02222,-0.123825 0,-0.07303 0.0254,-0.1397 0.02858,-0.06985 0.0762,-0.12065 0.04763,-0.05397 0.111125,-0.0889 0.0635,-0.03492 0.130175,-0.05397 0.06985,-0.02223 0.142875,-0.02858 0.07303,-0.0095 0.142875,-0.0095 0.06985,0 0.1397,0.0063 0.06985,0.0064 0.136525,0.0254 0.06985,0.01587 0.13335,0.04763 0.0635,0.03175 0.111125,0.08255 0.0508,0.04763 0.07937,0.1143 0.02858,0.06668 0.02858,0.136525 v 0.0095 h -0.13335 v -0.0064 q 0,-0.0508 -0.0254,-0.09842 -0.0254,-0.0508 -0.06668,-0.08573 -0.04127,-0.03493 -0.09207,-0.05398 -0.04763,-0.02222 -0.1016,-0.03492 -0.0508,-0.0127 -0.104775,-0.01587 -0.0508,-0.0064 -0.104775,-0.0064 -0.05398,0 -0.10795,0.0064 -0.05398,0.0032 -0.10795,0.01905 -0.05397,0.0127 -0.104775,0.0381 -0.04763,0.02222 -0.0889,0.06032 -0.0381,0.0381 -0.0635,0.0889 -0.02222,0.0508 -0.02222,0.104775 0,0.0635 0.03493,0.12065 0.03492,0.05398 0.08573,0.0889 0.05397,0.03492 0.1143,0.05715 0.0635,0.01905 0.123825,0.0381 0.06032,0.01587 0.12065,0.03175 0.0635,0.01587 0.123825,0.03492 0.06033,0.01587 0.12065,0.03492 0.06032,0.01905 0.117475,0.04445 0.06033,0.0254 0.1143,0.06032 0.05398,0.03175 0.09525,0.07938 0.04445,0.04763 0.06668,0.10795 0.0254,0.06033 0.0254,0.123825 0,0.07303 -0.02858,0.142875 -0.02858,0.06985 -0.08255,0.123825 -0.0508,0.0508 -0.117475,0.08573 -0.0635,0.03493 -0.136525,0.05398 -0.06985,0.01905 -0.142875,0.0254 -0.07303,0.0095 -0.14605,0.0095 z"
         style="baseline-shift:baseline;vector-effect:none;stop-color:#000000;stop-opacity:1"
         id="path484" />
      <path
         d="m 22.84362,12.53428 h -0.307975 q -0.06032,0 -0.123825,-0.0095 -0.06032,-0.0127 -0.117475,-0.0381 -0.05715,-0.02858 -0.1016,-0.07303 -0.04445,-0.04445 -0.07302,-0.09842 -0.0254,-0.05715 -0.0381,-0.117475 -0.0095,-0.0635 -0.0095,-0.127 v -1.0668 h -0.4953 v -0.12065 h 0.4953 V 10.20068 h 0.136525 v 0.682625 h 0.635 v 0.12065 h -0.635 v 1.0668 q 0,0.06985 0.01588,0.136525 0.01905,0.0635 0.0635,0.1143 0.04763,0.04763 0.1143,0.06985 0.06668,0.02222 0.13335,0.02222 h 0.307975 z"
         style="baseline-shift:baseline;vector-effect:none;stop-color:#000000;stop-opacity:1"
         id="path486" />
      <path
         d="m 24.05012,12.55968 q -0.09208,0 -0.180975,-0.01905 -0.0889,-0.01905 -0.1651,-0.06668 -0.0762,-0.04763 -0.13335,-0.12065 -0.05715,-0.07303 -0.09208,-0.155575 v 0.33655 h -0.13335 V 10.20065 h 0.13335 v 1.019175 q 0.03493,-0.08255 0.09208,-0.155575 0.05715,-0.07302 0.13335,-0.12065 0.0762,-0.04763 0.1651,-0.06668 0.0889,-0.01905 0.180975,-0.01905 0.0889,0 0.174625,0.01905 0.0889,0.01905 0.161925,0.0635 0.0762,0.04445 0.13335,0.1143 0.05715,0.06985 0.09208,0.1524 0.03493,0.07938 0.04763,0.168275 0.0127,0.08573 0.0127,0.174625 v 0.3175 q 0,0.0889 -0.0127,0.1778 -0.0127,0.08573 -0.04763,0.168275 -0.03493,0.07938 -0.09208,0.149225 -0.05715,0.06985 -0.13335,0.1143 -0.07302,0.04445 -0.161925,0.0635 -0.08573,0.01905 -0.174625,0.01905 z m -0.04127,-0.12065 q 0.07302,0 0.14605,-0.01588 0.07303,-0.01587 0.136525,-0.0508 0.06668,-0.0381 0.1143,-0.09208 0.0508,-0.05715 0.07938,-0.123825 0.02858,-0.06985 0.04127,-0.142875 0.0127,-0.07302 0.0127,-0.14605 v -0.3175 q 0,-0.07302 -0.0127,-0.14605 -0.0127,-0.07303 -0.04127,-0.1397 -0.02858,-0.06985 -0.07938,-0.123825 -0.04763,-0.05715 -0.1143,-0.09207 -0.0635,-0.0381 -0.136525,-0.05397 -0.07303,-0.01588 -0.14605,-0.01588 -0.07303,0 -0.14605,0.01588 -0.07302,0.01587 -0.1397,0.05397 -0.0635,0.03492 -0.1143,0.09207 -0.04763,0.05398 -0.0762,0.123825 -0.02858,0.06668 -0.04127,0.1397 -0.0127,0.07302 -0.0127,0.14605 v 0.3175 q 0,0.07302 0.0127,0.14605 0.0127,0.07303 0.04127,0.142875 0.02858,0.06668 0.0762,0.123825 0.0508,0.05398 0.1143,0.09208 0.06668,0.03492 0.1397,0.0508 0.07303,0.01588 0.14605,0.01588 z"
         style="baseline-shift:baseline;vector-effect:none;stop-color:#000000;stop-opacity:1"
         id="path488" />
      <path
         d="m 25.358221,12.53428 v -2.333625 h 0.13335 v 2.333625 z"
         style="baseline-shift:baseline;vector-effect:none;stop-color:#000000;stop-opacity:1"
         id="path490" />
      <path
         d="m 26.812368,12.55968 q -0.08573,0 -0.174625,-0.01905 -0.08573,-0.01905 -0.161925,-0.0635 -0.07303,-0.04763 -0.127,-0.117475 -0.05398,-0.06985 -0.0889,-0.149225 -0.03175,-0.08255 -0.04445,-0.168275 -0.0127,-0.08573 -0.0127,-0.174625 v -0.98425 h 0.13335 v 0.98425 q 0,0.07302 0.0095,0.14605 0.0127,0.07303 0.04128,0.1397 0.02858,0.06668 0.0762,0.123825 0.04763,0.05715 0.111125,0.09525 0.0635,0.03492 0.13335,0.0508 0.07303,0.01588 0.14605,0.01588 0.07302,0 0.142875,-0.01588 0.07303,-0.01587 0.136525,-0.0508 0.0635,-0.0381 0.111125,-0.09525 0.04763,-0.05715 0.0762,-0.123825 0.02858,-0.06668 0.0381,-0.1397 0.0127,-0.07302 0.0127,-0.14605 v -0.98425 h 0.13335 v 1.651 h -0.13335 v -0.333375 q -0.03493,0.08255 -0.0889,0.155575 -0.05397,0.06985 -0.130175,0.117475 -0.0762,0.04763 -0.1651,0.06668 -0.08572,0.01905 -0.174625,0.01905 z"
         style="baseline-shift:baseline;vector-effect:none;stop-color:#000000;stop-opacity:1"
         id="path492" />
      <path
         d="m 28.107769,12.53428 v -1.651 h 0.13335 v 0.301625 q 0.03175,-0.07303 0.07937,-0.136525 0.0508,-0.06668 0.117475,-0.111125 0.06985,-0.04445 0.149225,-0.06033 0.07937,-0.01905 0.15875,-0.01905 0.09207,0 0.180975,0.0254 0.0889,0.02223 0.15875,0.07938 0.07303,0.05715 0.12065,0.1397 0.04763,0.07938 0.06985,0.1651 0.02222,-0.08573 0.06668,-0.1651 0.04763,-0.08255 0.12065,-0.1397 0.07302,-0.05715 0.161925,-0.07938 0.0889,-0.0254 0.180975,-0.0254 0.07937,0 0.15875,0.01905 0.08255,0.01905 0.149225,0.0635 0.06985,0.04445 0.117475,0.111125 0.0508,0.06668 0.07938,0.142875 0.02858,0.0762 0.0381,0.15875 0.0127,0.07938 0.0127,0.15875 v 1.02235 h -0.13335 v -1.02235 q 0,-0.06668 -0.0095,-0.13335 -0.0095,-0.06668 -0.03493,-0.127 -0.0254,-0.0635 -0.06668,-0.117475 -0.04127,-0.05397 -0.09842,-0.0889 -0.05715,-0.03492 -0.123825,-0.0508 -0.0635,-0.01588 -0.130175,-0.01588 -0.06668,0 -0.13335,0.01588 -0.06668,0.01587 -0.123825,0.0508 -0.05397,0.03493 -0.09525,0.0889 -0.04127,0.05397 -0.06668,0.117475 -0.0254,0.06032 -0.03492,0.127 -0.0095,0.06668 -0.0095,0.13335 v 1.02235 h -0.13335 v -1.02235 q 0,-0.06668 -0.0095,-0.13335 -0.0095,-0.06668 -0.03493,-0.127 -0.0254,-0.0635 -0.06668,-0.117475 -0.04127,-0.05397 -0.09842,-0.0889 -0.05398,-0.03492 -0.12065,-0.0508 -0.06668,-0.01588 -0.13335,-0.01588 -0.06668,0 -0.13335,0.01588 -0.0635,0.01587 -0.12065,0.0508 -0.05715,0.03493 -0.09843,0.0889 -0.04127,0.05397 -0.06668,0.117475 -0.0254,0.06032 -0.03492,0.127 -0.0095,0.06668 -0.0095,0.13335 v 1.02235 z"
         style="baseline-shift:baseline;vector-effect:none;stop-color:#000000;stop-opacity:1"
         id="path494" />
      <path
         d="m 31.619319,12.55968 q -0.09208,0 -0.18415,-0.01587 -0.09207,-0.01588 -0.174625,-0.05715 -0.07937,-0.04445 -0.14605,-0.111125 -0.0635,-0.06668 -0.104775,-0.149225 -0.0381,-0.08573 -0.05398,-0.174625 -0.01587,-0.09207 -0.01587,-0.18415 v -0.3175 q 0,-0.09207 0.01587,-0.180975 0.01588,-0.09207 0.05398,-0.174625 0.04127,-0.08255 0.104775,-0.149225 0.0635,-0.06985 0.14605,-0.111125 0.08255,-0.04445 0.17145,-0.06033 0.09208,-0.01587 0.18415,-0.01587 0.09208,0 0.180975,0.01587 0.09208,0.01588 0.174625,0.06033 0.08255,0.04128 0.14605,0.111125 0.0635,0.06668 0.1016,0.149225 0.04127,0.08255 0.05715,0.174625 0.01588,0.0889 0.01588,0.180975 v 0.219075 h -1.2192 v 0.09843 q 0,0.0762 0.0127,0.149225 0.0127,0.07302 0.04445,0.142875 0.03175,0.06668 0.08255,0.123825 0.0508,0.05397 0.117475,0.09207 0.06668,0.03493 0.1397,0.0508 0.07303,0.0127 0.149225,0.0127 0.05715,0 0.1143,-0.0064 0.06032,-0.0063 0.1143,-0.01905 0.05715,-0.01587 0.10795,-0.04127 0.05398,-0.0254 0.09525,-0.0635 0.04445,-0.0381 0.06985,-0.09207 0.02857,-0.05397 0.03175,-0.111125 h 0.13335 q -0.0032,0.07302 -0.03493,0.14605 -0.02857,0.06985 -0.07937,0.123825 -0.0508,0.05398 -0.117475,0.09208 -0.06668,0.03492 -0.1397,0.05715 -0.06985,0.01905 -0.14605,0.0254 -0.0762,0.0095 -0.149225,0.0095 z m 0.53975,-0.911225 v -0.09843 q 0,-0.07302 -0.0127,-0.14605 -0.0127,-0.0762 -0.04445,-0.142875 -0.03175,-0.06985 -0.08255,-0.123825 -0.0508,-0.05715 -0.117475,-0.09208 -0.0635,-0.0381 -0.1397,-0.0508 -0.07303,-0.01588 -0.14605,-0.01588 -0.07302,0 -0.149225,0.01588 -0.07303,0.0127 -0.1397,0.0508 -0.0635,0.03493 -0.1143,0.09208 -0.0508,0.05397 -0.08255,0.123825 -0.03175,0.06668 -0.04445,0.142875 -0.0127,0.07302 -0.0127,0.14605 v 0.09843 z"
         style="baseline-shift:baseline;vector-effect:none;stop-color:#000000;stop-opacity:1"
         id="path496" />
      <path
         d="m 32.87027,12.53428 v -1.651 h 0.13335 v 0.333375 q 0.03493,-0.08255 0.0889,-0.1524 0.05398,-0.07302 0.130175,-0.12065 0.0762,-0.04763 0.161925,-0.06668 0.0889,-0.01905 0.1778,-0.01905 0.08572,0 0.17145,0.01905 0.0889,0.01905 0.161925,0.06668 0.0762,0.04445 0.130175,0.1143 0.05398,0.06985 0.08572,0.1524 0.03492,0.07938 0.04762,0.1651 0.0127,0.08573 0.0127,0.174625 v 0.98425 h -0.13334 v -0.98425 q 0,-0.07302 -0.0127,-0.14605 -0.0095,-0.07303 -0.0381,-0.1397 -0.02858,-0.06668 -0.0762,-0.123825 -0.04763,-0.05715 -0.111125,-0.09207 -0.0635,-0.0381 -0.136525,-0.05397 -0.06985,-0.01588 -0.142875,-0.01588 -0.07302,0 -0.14605,0.01588 -0.06985,0.01587 -0.13335,0.05397 -0.0635,0.03492 -0.111125,0.09207 -0.04763,0.05715 -0.0762,0.123825 -0.02858,0.06668 -0.04127,0.1397 -0.0095,0.07302 -0.0095,0.14605 v 0.98425 z"
         style="baseline-shift:baseline;vector-effect:none;stop-color:#000000;stop-opacity:1"
         id="path498" />
    </g>
  </g>
</svg>
